<svg width="22" height="13" viewBox="0 0 22 13" fill="none" xmlns="http://www.w3.org/2000/svg">
<path d="M21.5 6.37499C21.5003 6.20581 21.4631 6.03867 21.391 5.88562C21.3189 5.73258 21.2137 5.59745 21.083 5.48999L16.664 1.07999C16.4531 0.869315 16.1671 0.750981 15.869 0.750981C15.5709 0.750981 15.2849 0.869315 15.074 1.07999C14.9698 1.18418 14.8871 1.30789 14.8307 1.44404C14.7743 1.58019 14.7452 1.72612 14.7452 1.87349C14.7452 2.02086 14.7743 2.16679 14.8307 2.30294C14.8871 2.43909 14.9698 2.5628 15.074 2.66699L17.651 5.24999L1.625 5.24999C1.32663 5.24999 1.04048 5.36852 0.829504 5.5795C0.618526 5.79048 0.5 6.07662 0.5 6.37499C0.5 6.67336 0.618526 6.95951 0.829505 7.17049C1.04048 7.38146 1.32663 7.49999 1.625 7.49999L17.666 7.49999L15.0665 10.083C14.9621 10.1872 14.8792 10.311 14.8226 10.4473C14.7661 10.5836 14.737 10.7297 14.737 10.8772C14.737 11.0248 14.7661 11.1709 14.8226 11.3072C14.8792 11.4435 14.9621 11.5673 15.0665 11.6715C15.171 11.776 15.295 11.859 15.4316 11.9155C15.5681 11.9721 15.7145 12.0013 15.8622 12.0013C16.01 12.0013 16.1564 11.9721 16.2929 11.9155C16.4295 11.859 16.5535 11.776 16.658 11.6715L21.17 7.16549C21.2753 7.06267 21.3588 6.93967 21.4155 6.80385C21.4722 6.66803 21.5009 6.52217 21.5 6.37499Z" fill="#002B4E"/>
</svg>
